# xmcd CD database file
#
# Track frame offsets:
#	150
#	9452
#	31650
#	49579
#	76661
#	88319
#	100264
#	119698
#	139219
#	175846
#
# Disc length: 2670 seconds
#
# Revision: 0
# Processed by: cddbd v1.4PL0 Copyright (c) Steve Scherf et al.
# Submitted via: CDex 1.51
#
DISCID=770a6c0a
DTITLE=Pamela Barnes - Pure Jaz
DYEAR=2003
DGENRE=Jazz
TTITLE0=Almost Like Being In Love 01
TTITLE1=When Sonie Gets Blue 02
TTITLE2=Route 66 03
TTITLE3=Summertime 04
TTITLE4=Paper Moon 05
TTITLE5=Satin Doll 06
TTITLE6=Answering Machine 07
TTITLE7=Our Love Is Here To Stay 08
TTITLE8=Stormy Monday Blues 09
TTITLE9=Misty 10
EXTD=YEAR: 2003
EXTT0=
EXTT1=
EXTT2=
EXTT3=
EXTT4=
EXTT5=
EXTT6=
EXTT7=
EXTT8=
EXTT9=
PLAYORDER=
